<svg width="128" height="128" viewBox="0 0 128 128" fill="none" xmlns="http://www.w3.org/2000/svg">
<rect width="128" height="128" fill="white"/>
<mask id="mask0_2474_32" style="mask-type:luminance" maskUnits="userSpaceOnUse" x="8" y="57" width="112" height="14">
<path d="M120 57.6H8V70.4H120V57.6Z" fill="white"/>
</mask>
<g mask="url(#mask0_2474_32)">
<path d="M12.767 70.4C12.445 70.4 12.123 70.3685 11.7996 70.3055C11.4762 70.2425 11.1836 70.1265 10.9162 69.9562C10.6502 69.7858 10.4276 69.5296 10.2498 69.1889H10.1336L10.0664 70.2625H8V57.6H10.1994V62.5247H10.3156C10.4934 62.2298 10.7076 62.005 10.9568 61.8518C11.2074 61.6987 11.4902 61.5899 11.8066 61.5283C12.123 61.4653 12.4646 61.4338 12.8314 61.4338C13.3536 61.4338 13.7946 61.5083 14.1558 61.6557C14.517 61.8032 14.8082 62.048 15.0308 62.3887C15.2534 62.7294 15.4172 63.1875 15.5222 63.7616C15.6272 64.3357 15.6804 65.0544 15.6804 65.9176C15.6804 66.7809 15.6272 67.5167 15.5222 68.0908C15.4172 68.6649 15.2478 69.1187 15.014 69.4537C14.7802 69.7887 14.4778 70.0306 14.1054 70.1781C13.733 70.3255 13.2864 70.4 12.7642 70.4H12.767ZM11.8332 68.4573C12.2 68.4573 12.494 68.4315 12.7166 68.38C12.9392 68.3285 13.103 68.2211 13.208 68.0565C13.313 67.8918 13.383 67.6384 13.4166 67.2977C13.4502 66.9569 13.467 66.496 13.467 65.9162C13.467 65.3364 13.4502 64.8797 13.4166 64.5447C13.383 64.2097 13.313 63.9592 13.208 63.7945C13.103 63.6299 12.9392 63.5225 12.7166 63.471C12.494 63.4195 12.2 63.3951 11.8332 63.3951C11.4664 63.3951 11.1948 63.4323 10.9834 63.5054C10.772 63.5798 10.611 63.7129 10.5004 63.9062C10.3786 64.1109 10.2974 64.3772 10.2582 64.7079C10.219 65.0372 10.1994 65.4409 10.1994 65.9176C10.1994 66.3944 10.219 66.7852 10.2582 67.1187C10.2974 67.4537 10.3772 67.7301 10.5004 67.9462C10.611 68.1165 10.7734 68.244 10.9834 68.3299C11.1948 68.4143 11.4776 68.4573 11.8332 68.4573Z" fill="black"/>
<path d="M17.3418 70.264V57.6H19.558V70.264H17.3418Z" fill="black"/>
<path d="M25.1572 70.3999C24.4236 70.3999 23.8132 70.3541 23.3232 70.2639C22.8347 70.1737 22.4511 70.0248 22.1739 69.8201C21.8952 69.6154 21.6936 69.3434 21.5663 69.0026C21.4388 68.6619 21.3548 68.2353 21.3156 67.7242C21.2764 67.2131 21.2568 66.6047 21.2568 65.9003C21.2568 65.196 21.2764 64.5904 21.3156 64.0851C21.3548 63.5797 21.4375 63.156 21.5663 62.8152C21.6936 62.4745 21.8967 62.2011 22.1739 61.9978C22.4511 61.7931 22.8347 61.6485 23.3232 61.5626C23.8119 61.4781 24.4236 61.4352 25.1572 61.4352C25.8908 61.4352 26.4984 61.4781 26.9828 61.5626C27.4659 61.6485 27.8495 61.7931 28.1323 61.9978C28.4151 62.2025 28.6208 62.4745 28.7483 62.8152C28.8756 63.156 28.9596 63.5797 28.9988 64.0851C29.038 64.5904 29.0576 65.196 29.0576 65.9003C29.0576 66.6047 29.038 67.2131 28.9988 67.7242C28.9596 68.2353 28.8771 68.6619 28.7483 69.0026C28.6208 69.3434 28.4151 69.6168 28.1323 69.8201C27.8495 70.0248 27.4659 70.1722 26.9828 70.2639C26.4999 70.3555 25.8908 70.3999 25.1572 70.3999ZM25.1572 68.576C25.5688 68.576 25.8936 68.5474 26.1331 68.4916C26.3724 68.4343 26.5391 68.3183 26.6328 68.1422C26.7267 67.9662 26.7855 67.697 26.8079 67.3334C26.8303 66.9698 26.8415 66.4916 26.8415 65.9018C26.8415 65.312 26.8303 64.8367 26.8079 64.4788C26.7855 64.1209 26.7267 63.8532 26.6328 63.6771C26.5376 63.501 26.3711 63.3879 26.1331 63.3364C25.8936 63.2848 25.5688 63.2605 25.1572 63.2605C24.7456 63.2605 24.4068 63.2862 24.1744 63.3364C23.9407 63.3879 23.774 63.501 23.6747 63.6771C23.5752 63.8532 23.5164 64.1209 23.4996 64.4788C23.4828 64.8367 23.4744 65.3105 23.4744 65.9018C23.4744 66.493 23.4828 66.9698 23.4996 67.3334C23.5164 67.697 23.5739 67.9676 23.6747 68.1422C23.774 68.3183 23.9407 68.4358 24.1744 68.4916C24.4083 68.5474 24.7359 68.576 25.1572 68.576Z" fill="black"/>
<path d="M34.124 70.3999C33.4464 70.3999 32.8879 70.3369 32.4496 70.2123C32.01 70.0878 31.66 69.906 31.3996 69.6669C31.1379 69.4278 30.946 69.1301 30.8243 68.7722C30.7024 68.4142 30.624 67.9934 30.5904 67.5109C30.5568 67.0285 30.54 66.4916 30.54 65.9003C30.54 65.3091 30.5596 64.8123 30.5988 64.3413C30.638 63.8703 30.7235 63.4523 30.8564 63.0887C30.9895 62.7251 31.184 62.4216 31.4403 62.1767C31.6964 61.9319 32.0408 61.7487 32.4735 61.6227C32.9075 61.4982 33.4507 61.4352 34.1072 61.4352C34.53 61.4352 34.9627 61.4581 35.4079 61.5039C35.8516 61.5497 36.2296 61.6127 36.5419 61.6914V63.3965C36.308 63.3507 36.014 63.3177 35.6584 63.2948C35.3028 63.2719 34.9752 63.2605 34.6743 63.2605C34.2403 63.2605 33.8987 63.2948 33.6495 63.3621C33.3988 63.4308 33.2099 63.5583 33.0824 63.7458C32.9551 63.9333 32.8683 64.2039 32.8235 64.5561C32.7787 64.9083 32.7563 65.3635 32.7563 65.919C32.7563 66.4744 32.7787 66.9469 32.8235 67.3005C32.8683 67.6526 32.9564 67.9218 33.0895 68.1094C33.2224 68.2969 33.4199 68.4229 33.6816 68.4844C33.942 68.5474 34.2836 68.5789 34.7064 68.5789C34.9724 68.5789 35.2763 68.5674 35.6151 68.5446C35.9539 68.5216 36.2843 68.493 36.6063 68.4601V70.1465C36.2955 70.2266 35.9119 70.2882 35.4568 70.3341C35.0004 70.3798 34.5567 70.4028 34.1227 70.4028L34.124 70.3999Z" fill="black"/>
<path d="M38.2417 70.264V57.6H40.441V64.9971H41.141L43.591 61.5713H45.9906L42.9233 65.7473L46.0397 70.264H43.5561L41.1397 66.8209H40.4397V70.264H38.2402H38.2417Z" fill="black"/>
<path d="M50.3164 70.3999C49.6388 70.3999 49.0803 70.3369 48.642 70.2123C48.2024 70.0878 47.8524 69.906 47.592 69.6669C47.3303 69.4278 47.1384 69.1301 47.0167 68.7722C46.8948 68.4142 46.8164 67.9934 46.7828 67.5109C46.7492 67.0285 46.7324 66.4916 46.7324 65.9003C46.7324 65.3091 46.752 64.8123 46.7912 64.3413C46.8304 63.8703 46.9159 63.4523 47.0488 63.0887C47.1819 62.7251 47.3764 62.4216 47.6327 62.1767C47.8888 61.9319 48.2332 61.7487 48.6659 61.6227C49.0999 61.4982 49.6431 61.4352 50.2996 61.4352C50.7224 61.4352 51.1551 61.4581 51.6003 61.5039C52.044 61.5497 52.422 61.6127 52.7343 61.6914V63.3965C52.5004 63.3507 52.2064 63.3177 51.8508 63.2948C51.4952 63.2719 51.1676 63.2605 50.8667 63.2605C50.4327 63.2605 50.0911 63.2948 49.8419 63.3621C49.5912 63.4308 49.4023 63.5583 49.2748 63.7458C49.1475 63.9333 49.0607 64.2039 49.0159 64.5561C48.9711 64.9083 48.9487 65.3635 48.9487 65.919C48.9487 66.4744 48.9711 66.9469 49.0159 67.3005C49.0607 67.6526 49.1488 67.9218 49.2819 68.1094C49.4148 68.2969 49.6123 68.4229 49.874 68.4844C50.1344 68.5474 50.476 68.5789 50.8988 68.5789C51.1648 68.5789 51.4687 68.5674 51.8075 68.5446C52.1463 68.5216 52.4767 68.493 52.7987 68.4601V70.1465C52.4879 70.2266 52.1043 70.2882 51.6492 70.3341C51.1928 70.3798 50.7491 70.4028 50.3151 70.4028L50.3164 70.3999Z" fill="black"/>
<path d="M54.4844 70.264V57.6H56.6838V62.5934H56.8168C56.961 62.3214 57.15 62.0995 57.3838 61.9292C57.6176 61.7588 57.8948 61.6371 58.2168 61.5627C58.5388 61.4882 58.9056 61.4524 59.3172 61.4524C59.894 61.4524 60.3616 61.5226 60.7172 61.6657C61.0728 61.8075 61.3444 62.0208 61.5334 62.3057C61.7224 62.5906 61.847 62.9427 61.9086 63.3622C61.9702 63.7831 62.001 64.2713 62.001 64.8282V70.2654H59.8016V65.6613C59.8016 65.1388 59.7848 64.7237 59.7512 64.4173C59.7176 64.1109 59.6518 63.8833 59.551 63.7358C59.4516 63.5884 59.3004 63.4939 59.1016 63.4552C58.9014 63.4152 58.634 63.3951 58.3008 63.3951C57.9452 63.3951 57.6596 63.4381 57.4426 63.5225C57.2256 63.607 57.0646 63.7444 56.9596 63.932C56.8532 64.1195 56.7818 64.3629 56.7426 64.665C56.7034 64.967 56.6838 65.3321 56.6838 65.7645V70.264H54.4844Z" fill="black"/>
<path d="M66.0003 70.3999C65.4558 70.3999 64.9951 70.3169 64.6171 70.1522C64.2391 69.9876 63.9535 69.7156 63.759 69.3348C63.5643 68.954 63.4678 68.4515 63.4678 67.8259C63.4678 67.1559 63.5447 66.6248 63.7015 66.2326C63.857 65.8402 64.1299 65.5568 64.5178 65.3807C64.907 65.2046 65.4459 65.1173 66.1347 65.1173C66.2454 65.1173 66.4007 65.1202 66.601 65.1259C66.8011 65.1316 67.0294 65.1373 67.2842 65.1431C67.5403 65.1488 67.7951 65.1545 68.0514 65.1603C68.3075 65.166 68.5399 65.1746 68.7514 65.186V64.8453C68.7514 64.4702 68.7234 64.1739 68.6674 63.9591C68.6114 63.743 68.5063 63.5841 68.351 63.4824C68.1955 63.3808 67.9674 63.3178 67.6678 63.2949C67.3682 63.272 66.979 63.2605 66.5015 63.2605C66.2566 63.2605 65.9738 63.2662 65.6518 63.2777C65.3298 63.2891 65.019 63.3063 64.7179 63.3292C64.4183 63.3521 64.179 63.375 64.0011 63.3979V61.6929C64.4786 61.6142 64.9951 61.5512 65.551 61.5054C66.1067 61.4595 66.6682 61.4366 67.2338 61.4366C67.9002 61.4366 68.4587 61.4796 68.9095 61.5641C69.359 61.65 69.7202 61.7831 69.9931 61.9649C70.2647 62.1467 70.4706 62.3772 70.6091 62.6549C70.7478 62.9327 70.8402 63.2634 70.885 63.6442C70.9298 64.025 70.9522 64.4602 70.9522 64.9484V70.2654H68.9026L68.8354 69.2088H68.7023C68.5134 69.561 68.2655 69.823 67.9603 69.9934C67.6551 70.1637 67.3318 70.2739 66.993 70.3255C66.6542 70.377 66.3238 70.4014 66.0018 70.4014L66.0003 70.3999ZM67.0503 68.6619C67.2954 68.6619 67.5082 68.6448 67.6915 68.6104C67.875 68.5761 68.0359 68.5159 68.1746 68.4314C68.3131 68.3456 68.4223 68.2354 68.4994 68.0994C68.5763 67.9519 68.6379 67.7701 68.6827 67.5539C68.7275 67.3378 68.7499 67.0772 68.7499 66.7694V66.5146H66.7326C66.4218 66.5146 66.1823 66.5374 66.0158 66.5833C65.8491 66.629 65.7386 66.7307 65.6826 66.8896C65.6266 67.0486 65.5986 67.2876 65.5986 67.6054C65.5986 67.9003 65.6322 68.1251 65.6979 68.2783C65.7651 68.4314 65.9038 68.5346 66.1151 68.5846C66.3266 68.6362 66.6374 68.6619 67.049 68.6619H67.0503Z" fill="black"/>
<path d="M72.7881 59.6114V57.6H75.0714V59.6114H72.7881ZM72.8217 70.264V61.5713H75.0378V70.264H72.8217Z" fill="black"/>
<path d="M76.9277 70.2639V61.5712H78.9941L79.0613 62.6621H79.1944C79.3497 62.3786 79.5416 62.1453 79.7697 61.9634C79.998 61.7816 80.2808 61.6485 80.6196 61.5626C80.9584 61.4781 81.3448 61.4352 81.7788 61.4352C82.3556 61.4352 82.8204 61.5096 83.1704 61.6571C83.5204 61.8045 83.7892 62.0207 83.9781 62.3042C84.1672 62.5891 84.2917 62.9412 84.3533 63.3607C84.4149 63.7816 84.4457 64.2698 84.4457 64.8267V70.2639H82.2464V65.6613C82.2464 65.1387 82.2296 64.7236 82.196 64.4172C82.1624 64.1109 82.0965 63.8832 81.9957 63.7358C81.8964 63.5883 81.7452 63.4938 81.5464 63.4552C81.3461 63.4151 81.0788 63.395 80.7456 63.395C80.39 63.395 80.1044 63.438 79.8873 63.5225C79.6704 63.6069 79.5093 63.7444 79.4044 63.9319C79.298 64.1194 79.2265 64.3628 79.1873 64.6649C79.1481 64.967 79.1285 65.332 79.1285 65.7643V70.2639H76.9292H76.9277Z" fill="black"/>
<path d="M90.9287 70.264V57.6H93.1447V70.264H90.9287Z" fill="black"/>
<path d="M97.3279 70.3999C96.7839 70.3999 96.3231 70.3169 95.9447 70.1522C95.5671 69.9876 95.2815 69.7156 95.0871 69.3348C94.8919 68.954 94.7959 68.4515 94.7959 67.8259C94.7959 67.1559 94.8727 66.6248 95.0295 66.2326C95.1847 65.8402 95.4575 65.5568 95.8455 65.3807C96.2351 65.2046 96.7735 65.1173 97.4623 65.1173C97.5735 65.1173 97.7287 65.1202 97.9287 65.1259C98.1287 65.1316 98.3575 65.1373 98.6119 65.1431C98.8679 65.1488 99.1231 65.1545 99.3791 65.1603C99.6351 65.166 99.8679 65.1746 100.079 65.186V64.8453C100.079 64.4702 100.051 64.1739 99.9951 63.9591C99.9391 63.743 99.8343 63.5841 99.6791 63.4824C99.5231 63.3808 99.2951 63.3178 98.9959 63.2949C98.6959 63.272 98.3071 63.2605 97.8295 63.2605C97.5847 63.2605 97.3015 63.2662 96.9799 63.2777C96.6575 63.2891 96.3471 63.3063 96.0455 63.3292C95.7463 63.3521 95.5071 63.375 95.3287 63.3979V61.6929C95.8063 61.6142 96.3231 61.5512 96.8791 61.5054C97.4343 61.4595 97.9959 61.4366 98.5615 61.4366C99.2279 61.4366 99.7863 61.4796 100.237 61.5641C100.687 61.65 101.048 61.7831 101.321 61.9649C101.593 62.1467 101.798 62.3772 101.937 62.6549C102.076 62.9341 102.168 63.2634 102.213 63.6442C102.257 64.025 102.28 64.4602 102.28 64.9484V70.2654H100.23L100.163 69.2088H100.03C99.8415 69.561 99.5935 69.823 99.2879 69.9934C98.9831 70.1637 98.6599 70.2739 98.3207 70.3255C97.9823 70.377 97.6519 70.4014 97.3295 70.4014L97.3279 70.3999ZM98.3783 68.6619C98.6231 68.6619 98.8359 68.6448 99.0191 68.6104C99.2031 68.5761 99.3639 68.5159 99.5023 68.4314C99.6407 68.3456 99.7503 68.2354 99.8271 68.0994C99.9039 67.9519 99.9655 67.7701 100.01 67.5539C100.055 67.3378 100.077 67.0772 100.077 66.7694V66.5146H98.0607C97.7495 66.5146 97.5103 66.5374 97.3439 66.5833C97.1767 66.629 97.0663 66.7307 97.0103 66.8896C96.9543 67.0486 96.9263 67.2876 96.9263 67.6054C96.9263 67.9003 96.9599 68.1251 97.0255 68.2783C97.0927 68.4314 97.2319 68.5346 97.4431 68.5846C97.6543 68.6362 97.9655 68.6619 98.3767 68.6619H98.3783Z" fill="black"/>
<path d="M108.88 70.4C108.558 70.4 108.236 70.3685 107.913 70.3055C107.591 70.2425 107.297 70.1265 107.029 69.9562C106.764 69.7858 106.541 69.5296 106.363 69.1889H106.247L106.18 70.2625H104.113V57.6H106.312V62.5247H106.429C106.607 62.2298 106.821 62.005 107.07 61.8518C107.32 61.6987 107.604 61.5899 107.92 61.5283C108.236 61.4653 108.578 61.4338 108.944 61.4338C109.467 61.4338 109.908 61.5083 110.269 61.6557C110.63 61.8032 110.921 62.048 111.144 62.3887C111.367 62.7294 111.531 63.1875 111.636 63.7616C111.74 64.3357 111.794 65.0544 111.794 65.9176C111.794 66.7809 111.74 67.5167 111.636 68.0908C111.531 68.6649 111.361 69.1187 111.128 69.4537C110.893 69.7887 110.591 70.0306 110.219 70.1781C109.846 70.3255 109.4 70.4 108.877 70.4H108.88ZM107.947 68.4573C108.313 68.4573 108.608 68.4315 108.83 68.38C109.052 68.3285 109.216 68.2211 109.321 68.0565C109.426 67.8918 109.496 67.6384 109.53 67.2977C109.564 66.9569 109.58 66.496 109.58 65.9162C109.58 65.3364 109.564 64.8797 109.53 64.5447C109.496 64.2097 109.426 63.9592 109.321 63.7945C109.216 63.6299 109.052 63.5225 108.83 63.471C108.608 63.4195 108.313 63.3951 107.947 63.3951C107.58 63.3951 107.308 63.4323 107.096 63.5054C106.885 63.5798 106.724 63.7129 106.614 63.9062C106.492 64.1109 106.411 64.3772 106.372 64.7079C106.332 65.0372 106.312 65.4409 106.312 65.9176C106.312 66.3944 106.332 66.7852 106.372 67.1187C106.411 67.4537 106.491 67.7301 106.614 67.9462C106.724 68.1165 106.887 68.244 107.096 68.3299C107.308 68.4143 107.591 68.4573 107.947 68.4573Z" fill="black"/>
<path d="M116.749 70.3999C116.405 70.3999 116.035 70.3885 115.641 70.3655C115.245 70.3426 114.859 70.314 114.481 70.2797C114.103 70.2453 113.759 70.2066 113.448 70.1608V68.4558C113.614 68.4672 113.812 68.4815 114.04 68.4987C114.267 68.5159 114.515 68.5302 114.782 68.5417C115.048 68.5531 115.31 68.5646 115.566 68.576C115.822 68.5875 116.061 68.5932 116.283 68.5932C116.794 68.5932 117.164 68.5674 117.392 68.5159C117.62 68.4644 117.767 68.3742 117.833 68.2439C117.9 68.1136 117.932 67.9404 117.932 67.7242C117.932 67.4966 117.909 67.3306 117.865 67.2218C117.82 67.1143 117.737 67.0428 117.614 67.0084C117.491 66.9741 117.293 66.9397 117.013 66.9068L115.03 66.6519C114.508 66.5832 114.116 66.4415 113.855 66.2254C113.593 66.0091 113.416 65.72 113.322 65.3563C113.227 64.9927 113.181 64.5604 113.181 64.0607C113.181 63.4709 113.266 63.0014 113.44 62.6549C113.612 62.3085 113.849 62.0465 114.157 61.8704C114.461 61.6943 114.829 61.5783 115.257 61.5211C115.684 61.4638 116.149 61.4352 116.649 61.4352C116.981 61.4352 117.326 61.4466 117.681 61.4695C118.037 61.4924 118.379 61.5239 118.706 61.564C119.034 61.6041 119.309 61.6528 119.531 61.7086V63.3965C119.275 63.3621 118.992 63.3364 118.681 63.3206C118.37 63.3034 118.064 63.2862 117.764 63.2691C117.465 63.2519 117.197 63.2433 116.965 63.2433C116.542 63.2433 116.206 63.2576 115.957 63.2862C115.706 63.3149 115.531 63.3865 115.432 63.4996C115.333 63.6127 115.282 63.8002 115.282 64.0622C115.282 64.2669 115.299 64.4229 115.333 64.5303C115.366 64.6377 115.437 64.7121 115.549 64.7522C115.661 64.7923 115.837 64.8281 116.083 64.8624L118.233 65.1345C118.622 65.1803 118.95 65.2705 119.216 65.4065C119.482 65.5425 119.679 65.7815 119.808 66.1222C119.936 66.463 120 66.9798 120 67.6741C120 68.2768 119.927 68.7564 119.783 69.1143C119.639 69.4722 119.419 69.7442 119.125 69.9318C118.831 70.1193 118.486 70.2438 118.092 70.3069C117.697 70.3698 117.25 70.4014 116.75 70.4014L116.749 70.3999Z" fill="black"/>
</g>
</svg>
